<svg width="1200" height="300" viewBox="0 0 1200 300" xmlns="http://www.w3.org/2000/svg">
  <defs>
    <linearGradient id="partyGradient" x1="0%" y1="0%" x2="0%" y2="100%">
      <stop offset="0%" style="stop-color:#FFD700"/>
      <stop offset="30%" style="stop-color:#FF8C00"/>
      <stop offset="60%" style="stop-color:#FF69B4"/>
      <stop offset="100%" style="stop-color:#9C27B0"/>
    </linearGradient>
    <radialGradient id="balloonGradient1" cx="30%" cy="30%" r="70%">
      <stop offset="0%" style="stop-color:#FF69B4"/>
      <stop offset="100%" style="stop-color:#FF1493"/>
    </radialGradient>
    <radialGradient id="balloonGradient2" cx="30%" cy="30%" r="70%">
      <stop offset="0%" style="stop-color:#87CEEB"/>
      <stop offset="100%" style="stop-color:#4169E1"/>
    </radialGradient>
    <radialGradient id="balloonGradient3" cx="30%" cy="30%" r="70%">
      <stop offset="0%" style="stop-color:#98FB98"/>
      <stop offset="100%" style="stop-color:#32CD32"/>
    </radialGradient>
    <linearGradient id="cakeGradient" x1="0%" y1="0%" x2="0%" y2="100%">
      <stop offset="0%" style="stop-color:#F4A460"/>
      <stop offset="100%" style="stop-color:#D2691E"/>
    </linearGradient>
    <radialGradient id="sunGradient" cx="50%" cy="50%" r="50%">
      <stop offset="0%" style="stop-color:#FFFF00"/>
      <stop offset="100%" style="stop-color:#FFA500"/>
    </radialGradient>
  </defs>
  
  <!-- Festive gradient background -->
  <rect width="1200" height="300" fill="url(#partyGradient)"/>
  
  <!-- Party sun -->
  <circle cx="1000" cy="70" r="35" fill="url(#sunGradient)"/>
  <g stroke="#FFD700" stroke-width="2" opacity="0.8">
    <line x1="970" y1="40" x2="978" y2="48"/>
    <line x1="975" y1="32" x2="980" y2="45"/>
    <line x1="985" y1="28" x2="985" y2="40"/>
    <line x1="995" y1="25" x2="995" y2="38"/>
    <line x1="1005" y1="28" x2="1005" y2="40"/>
    <line x1="1015" y1="32" x2="1010" y2="45"/>
    <line x1="1030" y1="40" x2="1022" y2="48"/>
    <line x1="1035" y1="55" x2="1022" y2="60"/>
    <line x1="1040" y1="70" x2="1025" y2="70"/>
    <line x1="1035" y1="85" x2="1022" y2="80"/>
    <line x1="1030" y1="100" x2="1022" y2="92"/>
    <line x1="1015" y1="108" x2="1010" y2="95"/>
    <line x1="1005" y1="112" x2="1005" y2="100"/>
    <line x1="995" y1="115" x2="995" y2="102"/>
    <line x1="985" y1="112" x2="985" y2="100"/>
    <line x1="975" y1="108" x2="980" y2="95"/>
    <line x1="970" y1="100" x2="978" y2="92"/>
    <line x1="965" y1="85" x2="978" y2="80"/>
    <line x1="960" y1="70" x2="975" y2="70"/>
    <line x1="965" y1="55" x2="978" y2="60"/>
  </g>
  
  <!-- Party room background -->
  <g transform="translate(100, 220)" opacity="0.6">
    <!-- Party room wall -->
    <rect x="0" y="-60" width="150" height="80" fill="#FFEB3B"/>
    <rect x="0" y="-55" width="150" height="5" fill="#FFC107"/>
    <rect x="0" y="-30" width="150" height="5" fill="#FFC107"/>
    
    <!-- Windows with party view -->
    <rect x="20" y="-45" width="25" height="20" rx="3" fill="#E3F2FD"/>
    <rect x="60" y="-45" width="25" height="20" rx="3" fill="#E3F2FD"/>
    <rect x="100" y="-45" width="25" height="20" rx="3" fill="#E3F2FD"/>
    
    <!-- Window frames -->
    <line x1="32" y1="-45" x2="32" y2="-25" stroke="#FF9800" stroke-width="1"/>
    <line x1="20" y1="-35" x2="45" y2="-35" stroke="#FF9800" stroke-width="1"/>
    <line x1="72" y1="-45" x2="72" y2="-25" stroke="#FF9800" stroke-width="1"/>
    <line x1="60" y1="-35" x2="85" y2="-35" stroke="#FF9800" stroke-width="1"/>
    <line x1="112" y1="-45" x2="112" y2="-25" stroke="#FF9800" stroke-width="1"/>
    <line x1="100" y1="-35" x2="125" y2="-35" stroke="#FF9800" stroke-width="1"/>
    
    <!-- Party door -->
    <rect x="130" y="-15" width="15" height="35" rx="7" fill="#8D6E63"/>
    <circle cx="140" cy="2" r="1.5" fill="#FFD700"/>
    
    <!-- Party banner on building -->
    <rect x="10" y="-65" width="130" height="12" fill="#FF69B4"/>
    <text x="75" y="-57" text-anchor="middle" font-family="Arial" font-size="8" fill="#FFFFFF">PARTY TIME!</text>
  </g>
  
  <!-- Enhanced birthday person in center -->
  <g transform="translate(600, 180)">
    <!-- Shadow -->
    <ellipse cx="5" cy="90" rx="30" ry="6" fill="#000000" opacity="0.2"/>
    
    <!-- Party outfit -->
    <ellipse cx="0" cy="15" rx="25" ry="30" fill="#4169E1"/>
    <rect x="-20" y="-10" width="40" height="35" fill="#4169E1"/>
    
    <!-- Outfit details -->
    <ellipse cx="0" cy="-10" rx="18" ry="4" fill="#FFFFFF"/>
    <ellipse cx="0" cy="15" rx="23" ry="4" fill="#FFFFFF"/>
    <ellipse cx="0" cy="35" rx="21" ry="3" fill="#FFFFFF"/>
    
    <!-- Birthday number on shirt -->
    <circle cx="0" cy="8" r="8" fill="#FFD700"/>
    <text x="0" y="12" text-anchor="middle" font-family="Arial" font-size="12" font-weight="bold" fill="#FF1493">5</text>
    
    <!-- Head with party hat -->
    <circle cx="0" cy="-15" r="15" fill="#FFDBAC"/>
    
    <!-- Detailed party hat -->
    <polygon points="0,-30 -15,5 15,5" fill="#FF69B4"/>
    <polygon points="0,-30 -12,0 12,0" fill="#FFD700"/>
    <polygon points="0,-30 -8,-5 8,-5" fill="#87CEEB"/>
    <circle cx="0" cy="-30" r="5" fill="#FFFFFF"/>
    <circle cx="0" cy="-30" r="3" fill="#FF69B4"/>
    
    <!-- Hat pattern -->
    <circle cx="-6" cy="-10" r="2" fill="#FFFFFF" opacity="0.7"/>
    <circle cx="6" cy="-8" r="1.5" fill="#FFFFFF" opacity="0.7"/>
    <circle cx="0" cy="-5" r="2" fill="#FFFFFF" opacity="0.7"/>
    
    <!-- Hair showing under hat -->
    <path d="M-12 -22 Q0 -26 12 -22 Q10 -18 6 -20 Q0 -21 -6 -20 Q-10 -18 -12 -22" fill="#8B4513"/>
    
    <!-- Excited facial expression -->
    <ellipse cx="-4" cy="-18" rx="3" ry="2" fill="#FFFFFF"/>
    <ellipse cx="4" cy="-18" rx="3" ry="2" fill="#FFFFFF"/>
    <circle cx="-4" cy="-18" r="2.5" fill="#32CD32"/>
    <circle cx="4" cy="-18" r="2.5" fill="#32CD32"/>
    <circle cx="-3" cy="-19" r="1.2" fill="#FFFFFF"/>
    <circle cx="5" cy="-19" r="1.2" fill="#FFFFFF"/>
    
    <!-- Excited eyebrows -->
    <ellipse cx="-4" cy="-22" rx="4" ry="1.5" fill="#8B4513" transform="rotate(-15 -4 -22)"/>
    <ellipse cx="4" cy="-22" rx="4" ry="1.5" fill="#8B4513" transform="rotate(15 4 -22)"/>
    
    <!-- Big happy smile -->
    <path d="M-8 -10 Q0 -5 8 -10" fill="none" stroke="#000" stroke-width="2.5"/>
    <ellipse cx="0" cy="-8" rx="6" ry="3" fill="#FF69B4"/>
    
    <!-- Rosy cheeks -->
    <circle cx="-9" cy="-12" r="3" fill="#FF8A65" opacity="0.6"/>
    <circle cx="9" cy="-12" r="3" fill="#FF8A65" opacity="0.6"/>
    
    <!-- Arms raised in celebration -->
    <ellipse cx="-35" cy="0" rx="15" ry="8" fill="#FFDBAC" transform="rotate(-45 -35 0)"/>
    <ellipse cx="35" cy="0" rx="15" ry="8" fill="#FFDBAC" transform="rotate(45 35 0)"/>
    
    <!-- Hands with confetti -->
    <circle cx="-40" cy="-10" r="6" fill="#FFDBAC"/>
    <circle cx="40" cy="-10" r="6" fill="#FFDBAC"/>
    
    <!-- Confetti from hands -->
    <rect x="-45" y="-18" width="2" height="4" fill="#FF69B4" transform="rotate(45 -44 -16)"/>
    <rect x="-42" y="-20" width="2" height="3" fill="#FFD700" transform="rotate(-30 -41 -18.5)"/>
    <circle cx="-38" cy="-22" r="1" fill="#87CEEB"/>
    <rect x="43" y="-18" width="2" height="4" fill="#98FB98" transform="rotate(-45 44 -16)"/>
    <rect x="40" y="-20" width="2" height="3" fill="#FF69B4" transform="rotate(30 41 -18.5)"/>
    <circle cx="36" cy="-22" r="1" fill="#FFD700"/>
    
    <!-- Legs with party pants -->
    <ellipse cx="-10" cy="70" rx="8" ry="25" fill="#FF1493"/>
    <ellipse cx="10" cy="70" rx="8" ry="25" fill="#FF1493"/>
    
    <!-- Fun party shoes -->
    <ellipse cx="-10" cy="95" rx="12" ry="6" fill="#FFD700"/>
    <ellipse cx="10" cy="95" rx="12" ry="6" fill="#FFD700"/>
    <ellipse cx="-10" cy="93" rx="10" ry="4" fill="#FFA500"/>
    <ellipse cx="10" cy="93" rx="10" ry="4" fill="#FFA500"/>
    
    <!-- Shoe decorations -->
    <circle cx="-10" cy="92" r="2" fill="#FF69B4"/>
    <circle cx="10" cy="92" r="2" fill="#FF69B4"/>
  </g>
  
  <!-- Elaborate birthday cake -->
  <g transform="translate(400, 200)">
    <!-- Cake shadow -->
    <ellipse cx="2" cy="50" rx="45" ry="8" fill="#000000" opacity="0.2"/>
    
    <!-- Three-tier cake base -->
    <ellipse cx="0" cy="45" rx="42" ry="10" fill="#8B4513"/>
    <rect x="-40" y="5" width="80" height="40" fill="url(#cakeGradient)"/>
    <ellipse cx="0" cy="5" rx="40" ry="8" fill="#DEB887"/>
    
    <!-- Second tier -->
    <ellipse cx="0" cy="25" rx="35" ry="8" fill="#8B4513"/>
    <rect x="-33" y="-10" width="66" height="35" fill="url(#cakeGradient)"/>
    <ellipse cx="0" cy="-10" rx="33" ry="7" fill="#DEB887"/>
    
    <!-- Top tier -->
    <ellipse cx="0" cy="5" rx="28" ry="7" fill="#8B4513"/>
    <rect x="-26" y="-25" width="52" height="30" fill="url(#cakeGradient)"/>
    <ellipse cx="0" cy="-25" rx="26" ry="6" fill="#DEB887"/>
    
    <!-- Detailed frosting -->
    <ellipse cx="0" cy="-25" rx="24" ry="4" fill="#FFB6C1"/>
    <ellipse cx="0" cy="-10" rx="31" ry="4" fill="#FFB6C1"/>
    <ellipse cx="0" cy="5" rx="38" ry="4" fill="#FFB6C1"/>
    
    <!-- Decorative frosting swirls -->
    <path d="M-20 -20 Q-15 -25 -10 -20 Q-5 -15 0 -20 Q5 -25 10 -20 Q15 -15 20 -20" fill="none" stroke="#FF69B4" stroke-width="2"/>
    <path d="M-28 -5 Q-20 -10 -12 -5 Q-4 0 4 -5 Q12 -10 20 -5 Q28 0 28 -5" fill="none" stroke="#FF69B4" stroke-width="2"/>
    <path d="M-35 10 Q-25 5 -15 10 Q-5 15 5 10 Q15 5 25 10 Q35 15 35 10" fill="none" stroke="#FF69B4" stroke-width="2"/>
    
    <!-- Decorative flowers -->
    <g transform="translate(-15, -18)">
      <circle cx="0" cy="0" r="3" fill="#FF69B4"/>
      <circle cx="-2" cy="-1" r="2" fill="#FFFFFF"/>
      <circle cx="2" cy="-1" r="2" fill="#FF69B4"/>
      <circle cx="0" cy="2" r="2" fill="#FFFFFF"/>
    </g>
    <g transform="translate(15, -18)">
      <circle cx="0" cy="0" r="3" fill="#87CEEB"/>
      <circle cx="-2" cy="-1" r="2" fill="#FFFFFF"/>
      <circle cx="2" cy="-1" r="2" fill="#87CEEB"/>
      <circle cx="0" cy="2" r="2" fill="#FFFFFF"/>
    </g>
    
    <!-- Candles with flames -->
    <rect x="-22" y="-35" width="4" height="12" fill="#FF6347"/>
    <rect x="-12" y="-35" width="4" height="12" fill="#4169E1"/>
    <rect x="-2" y="-35" width="4" height="12" fill="#32CD32"/>
    <rect x="8" y="-35" width="4" height="12" fill="#FFD700"/>
    <rect x="18" y="-35" width="4" height="12" fill="#FF69B4"/>
    
    <!-- Wax drips -->
    <ellipse cx="-20" cy="-23" rx="1" ry="3" fill="#FF6347"/>
    <ellipse cx="-10" cy="-23" rx="1" ry="3" fill="#4169E1"/>
    <ellipse cx="0" cy="-23" rx="1" ry="3" fill="#32CD32"/>
    <ellipse cx="10" cy="-23" rx="1" ry="3" fill="#FFD700"/>
    <ellipse cx="20" cy="-23" rx="1" ry="3" fill="#FF69B4"/>
    
    <!-- Animated flames -->
    <ellipse cx="-20" cy="-37" rx="2" ry="4" fill="#FFD700"/>
    <ellipse cx="-20" cy="-38" rx="1.5" ry="3" fill="#FF4500"/>
    <ellipse cx="-20" cy="-39" rx="1" ry="2" fill="#FFFF00"/>
    
    <ellipse cx="-10" cy="-37" rx="2" ry="4" fill="#FFD700"/>
    <ellipse cx="-10" cy="-38" rx="1.5" ry="3" fill="#FF4500"/>
    <ellipse cx="-10" cy="-39" rx="1" ry="2" fill="#FFFF00"/>
    
    <ellipse cx="0" cy="-37" rx="2" ry="4" fill="#FFD700"/>
    <ellipse cx="0" cy="-38" rx="1.5" ry="3" fill="#FF4500"/>
    <ellipse cx="0" cy="-39" rx="1" ry="2" fill="#FFFF00"/>
    
    <ellipse cx="10" cy="-37" rx="2" ry="4" fill="#FFD700"/>
    <ellipse cx="10" cy="-38" rx="1.5" ry="3" fill="#FF4500"/>
    <ellipse cx="10" cy="-39" rx="1" ry="2" fill="#FFFF00"/>
    
    <ellipse cx="20" cy="-37" rx="2" ry="4" fill="#FFD700"/>
    <ellipse cx="20" cy="-38" rx="1.5" ry="3" fill="#FF4500"/>
    <ellipse cx="20" cy="-39" rx="1" ry="2" fill="#FFFF00"/>
    
    <!-- Cake writing -->
    <text x="0" y="20" text-anchor="middle" font-family="cursive" font-size="10" fill="#FF1493">Happy Birthday!</text>
  </g>
  
  <!-- Enhanced party guests -->
  <g transform="translate(200, 220)">
    <!-- Child 1 with party outfit -->
    <g>
      <!-- Body with party dress -->
      <ellipse cx="0" cy="10" rx="12" ry="18" fill="#FF69B4"/>
      <rect x="-10" y="-8" width="20" height="25" fill="#FF69B4"/>
      
      <!-- Dress details -->
      <ellipse cx="0" cy="-8" rx="10" ry="3" fill="#FFFFFF"/>
      <ellipse cx="0" cy="10" rx="11" ry="3" fill="#FFFFFF"/>
      <circle cx="-5" cy="3" r="1.5" fill="#FFD700"/>
      <circle cx="0" cy="3" r="1.5" fill="#FFD700"/>
      <circle cx="5" cy="3" r="1.5" fill="#FFD700"/>
      
      <!-- Head -->
      <circle cx="0" cy="-12" r="10" fill="#FFDBAC"/>
      
      <!-- Party hat -->
      <polygon points="0,-22 -8,0 8,0" fill="#87CEEB"/>
      <polygon points="0,-22 -6,-3 6,-3" fill="#FFFFFF"/>
      <circle cx="0" cy="-22" r="3" fill="#FFD700"/>
      
      <!-- Hair with pigtails -->
      <circle cx="-7" cy="-16" r="3" fill="#FFD700"/>
      <circle cx="7" cy="-16" r="3" fill="#FFD700"/>
      <ellipse cx="0" cy="-18" rx="6" ry="2" fill="#FFD700"/>
      
      <!-- Hair ties -->
      <circle cx="-7" cy="-16" r="1.5" fill="#FF69B4"/>
      <circle cx="7" cy="-16" r="1.5" fill="#FF69B4"/>
      
      <!-- Face -->
      <circle cx="-3" cy="-15" r="1.5" fill="#000"/>
      <circle cx="3" cy="-15" r="1.5" fill="#000"/>
      <circle cx="-3" cy="-16" r="0.8" fill="#FFFFFF"/>
      <circle cx="3" cy="-16" r="0.8" fill="#FFFFFF"/>
      
      <!-- Big smile -->
      <path d="M-4 -10 Q0 -7 4 -10" fill="none" stroke="#000" stroke-width="1.5"/>
      <ellipse cx="0" cy="-9" rx="3" ry="1.5" fill="#FF69B4"/>
      
      <!-- Rosy cheeks -->
      <circle cx="-6" cy="-11" r="2" fill="#FF8A65" opacity="0.6"/>
      <circle cx="6" cy="-11" r="2" fill="#FF8A65" opacity="0.6"/>
      
      <!-- Arms -->
      <ellipse cx="-15" cy="0" rx="7" ry="4" fill="#FFDBAC" transform="rotate(-25 -15 0)"/>
      <ellipse cx="15" cy="0" rx="7" ry="4" fill="#FFDBAC" transform="rotate(25 15 0)"/>
      
      <!-- Hands with party favors -->
      <circle cx="-18" cy="-3" r="4" fill="#FFDBAC"/>
      <circle cx="18" cy="-3" r="4" fill="#FFDBAC"/>
      
      <!-- Party horn in hand -->
      <rect x="-22" y="-5" width="8" height="3" fill="#FFD700" transform="rotate(-25 -18 -3.5)"/>
      <polygon points="-14,-4 -10,-3 -14,-2" fill="#FF69B4" transform="rotate(-25 -18 -3.5)"/>
      
      <!-- Balloon in other hand -->
      <ellipse cx="22" cy="-8" rx="4" ry="6" fill="url(#balloonGradient1)"/>
      <line x1="22" y1="-2" x2="22" y2="5" stroke="#8B4513" stroke-width="1"/>
      
      <!-- Legs -->
      <ellipse cx="-5" cy="35" rx="4" ry="12" fill="#FFDBAC"/>
      <ellipse cx="5" cy="35" rx="4" ry="12" fill="#FFDBAC"/>
      
      <!-- Party shoes -->
      <ellipse cx="-5" cy="47" rx="6" ry="3" fill="#32CD32"/>
      <ellipse cx="5" cy="47" rx="6" ry="3" fill="#32CD32"/>
    </g>
  </g>
  
  <!-- Child 2 -->
  <g transform="translate(800, 210)">
    <!-- Body with superhero party costume -->
    <ellipse cx="0" cy="12" rx="10" ry="16" fill="#4169E1"/>
    <rect x="-8" y="-4" width="16" height="20" fill="#4169E1"/>
    
    <!-- Cape -->
    <path d="M-8 -2 Q-15 5 -18 20 Q-15 35 -10 40 Q-5 35 -8 20 Q-8 10 -8 -2" fill="#FF1493"/>
    <path d="M8 -2 Q15 5 18 20 Q15 35 10 40 Q5 35 8 20 Q8 10 8 -2" fill="#FF1493"/>
    
    <!-- Superhero emblem -->
    <circle cx="0" cy="5" r="6" fill="#FFD700"/>
    <polygon points="0,0 -3,8 3,8" fill="#FF1493"/>
    
    <!-- Head -->
    <circle cx="0" cy="-10" r="9" fill="#FFDBAC"/>
    
    <!-- Superhero mask -->
    <ellipse cx="0" cy="-12" rx="8" ry="4" fill="#FF1493"/>
    <ellipse cx="-3" cy="-13" rx="2" ry="1.5" fill="#FFFFFF"/>
    <ellipse cx="3" cy="-13" rx="2" ry="1.5" fill="#FFFFFF"/>
    
    <!-- Eyes through mask -->
    <circle cx="-3" cy="-13" r="1.5" fill="#4169E1"/>
    <circle cx="3" cy="-13" r="1.5" fill="#4169E1"/>
    <circle cx="-3" cy="-14" r="0.8" fill="#FFFFFF"/>
    <circle cx="3" cy="-14" r="0.8" fill="#FFFFFF"/>
    
    <!-- Hair -->
    <path d="M-7 -17 Q0 -20 7 -17 Q5 -12 2 -14 Q0 -15 -2 -14 Q-5 -12 -7 -17" fill="#8B4513"/>
    
    <!-- Smile -->
    <path d="M-3 -7 Q0 -5 3 -7" fill="none" stroke="#000" stroke-width="1"/>
    
    <!-- Arms in heroic pose -->
    <ellipse cx="-12" cy="3" rx="6" ry="3" fill="#FFDBAC" transform="rotate(-35 -12 3)"/>
    <ellipse cx="12" cy="3" rx="6" ry="3" fill="#FFDBAC" transform="rotate(35 12 3)"/>
    
    <!-- Gloved hands -->
    <circle cx="-15" cy="0" r="3" fill="#FFD700"/>
    <circle cx="15" cy="0" r="3" fill="#FFD700"/>
    
    <!-- Gift box held heroically -->
    <rect x="-3" y="-2" width="6" height="6" fill="#32CD32" rx="1"/>
    <rect x="-3" y="0" width="6" height="2" fill="#FFD700"/>
    <rect x="-1" y="-2" width="2" height="6" fill="#FFD700"/>
    <path d="M-1 -2 Q0 -5 1 -2 Q2 0 1 2 Q0 0 -1 2 Q-2 0 -1 -2" fill="#FFD700"/>
    
    <!-- Legs with superhero boots -->
    <ellipse cx="-4" cy="33" rx="3" ry="10" fill="#4169E1"/>
    <ellipse cx="4" cy="33" rx="3" ry="10" fill="#4169E1"/>
    
    <!-- Superhero boots -->
    <ellipse cx="-4" cy="43" rx="5" ry="3" fill="#FF1493"/>
    <ellipse cx="4" cy="43" rx="5" ry="3" fill="#FF1493"/>
  </g>
  
  <!-- Balloons floating -->
  <g>
    <g transform="translate(150, 120)">
      <ellipse cx="0" cy="0" rx="12" ry="18" fill="url(#balloonGradient1)"/>
      <line x1="0" y1="18" x2="0" y2="50" stroke="#8B4513" stroke-width="1.5"/>
    </g>
    
    <g transform="translate(180, 100)">
      <ellipse cx="0" cy="0" rx="10" ry="15" fill="url(#balloonGradient2)"/>
      <line x1="0" y1="15" x2="0" y2="45" stroke="#8B4513" stroke-width="1.5"/>
    </g>
    
    <g transform="translate(210, 110)">
      <ellipse cx="0" cy="0" rx="11" ry="16" fill="#FFD700"/>
      <line x1="0" y1="16" x2="0" y2="50" stroke="#8B4513" stroke-width="1.5"/>
    </g>
    
    <g transform="translate(950, 80)">
      <ellipse cx="0" cy="0" rx="14" ry="20" fill="#98FB98"/>
      <line x1="0" y1="20" x2="0" y2="60" stroke="#8B4513" stroke-width="1.5"/>
    </g>
    
    <g transform="translate(980, 90)">
      <ellipse cx="0" cy="0" rx="12" ry="18" fill="#DDA0DD"/>
      <line x1="0" y1="18" x2="0" y2="55" stroke="#8B4513" stroke-width="1.5"/>
    </g>
  </g>
  
  <!-- Confetti falling -->
  <g opacity="0.8">
    <rect x="250" y="80" width="4" height="8" fill="#FF69B4" transform="rotate(45 252 84)"/>
    <rect x="350" y="60" width="3" height="6" fill="#FFD700" transform="rotate(-30 351.5 63)"/>
    <rect x="450" y="100" width="4" height="7" fill="#87CEEB" transform="rotate(60 452 103.5)"/>
    <rect x="550" y="70" width="3" height="5" fill="#98FB98" transform="rotate(-45 551.5 72.5)"/>
    <rect x="650" y="90" width="4" height="6" fill="#DDA0DD" transform="rotate(30 652 93)"/>
    <rect x="750" y="50" width="3" height="7" fill="#FF69B4" transform="rotate(-60 751.5 53.5)"/>
    <rect x="850" y="110" width="4" height="5" fill="#FFD700" transform="rotate(15 852 112.5)"/>
    <rect x="950" y="40" width="3" height="6" fill="#87CEEB" transform="rotate(-15 951.5 43)"/>
    
    <!-- Round confetti -->
    <circle cx="300" cy="120" r="2" fill="#FF69B4"/>
    <circle cx="500" cy="130" r="1.5" fill="#FFD700"/>
    <circle cx="700" cy="140" r="2" fill="#87CEEB"/>
    <circle cx="900" cy="150" r="1.5" fill="#98FB98"/>
  </g>
  
  <!-- Party streamers -->
  <g fill="none" stroke-width="3" opacity="0.7">
    <path d="M0 50 Q100 30 200 50 Q300 70 400 50" stroke="#FF69B4"/>
    <path d="M400 40 Q500 20 600 40 Q700 60 800 40" stroke="#87CEEB"/>
    <path d="M800 60 Q900 40 1000 60 Q1100 80 1200 60" stroke="#FFD700"/>
  </g>
  
  <!-- Stars and sparkles -->
  <g fill="#FFD700" opacity="0.8">
    <polygon points="100,180 102,186 108,186 103,190 105,196 100,192 95,196 97,190 92,186 98,186"/>
    <polygon points="1050,120 1052,126 1058,126 1053,130 1055,136 1050,132 1045,136 1047,130 1042,126 1048,126"/>
    <polygon points="300,200 301,204 305,204 302,207 303,211 300,208 297,211 298,207 295,204 299,204"/>
    <polygon points="750,180 751,184 755,184 752,187 753,191 750,188 747,191 748,187 745,184 749,184"/>
  </g>
  
  <!-- Celebratory text -->
  <text x="600" y="50" text-anchor="middle" font-family="cursive" font-size="24" font-weight="bold" fill="#FFD700" stroke="#FF1493" stroke-width="1">
    ¡FELIZ CUMPLEAÑOS!
  </text>
  
  <!-- Party sparkles -->
  <g opacity="0.9">
    <g transform="translate(180, 100)">
      <path d="M0,-8 L2,0 L8,0 L3,3 L5,8 L0,5 L-5,8 L-3,3 L-8,0 L-2,0 Z" fill="#FFD700"/>
    </g>
    <g transform="translate(380, 80) scale(0.7)">
      <path d="M0,-8 L2,0 L8,0 L3,3 L5,8 L0,5 L-5,8 L-3,3 L-8,0 L-2,0 Z" fill="#FFFFFF"/>
    </g>
    <g transform="translate(780, 120) scale(0.8)">
      <path d="M0,-8 L2,0 L8,0 L3,3 L5,8 L0,5 L-5,8 L-3,3 L-8,0 L-2,0 Z" fill="#FF69B4"/>
    </g>
    <g transform="translate(950, 90) scale(0.6)">
      <path d="M0,-8 L2,0 L8,0 L3,3 L5,8 L0,5 L-5,8 L-3,3 L-8,0 L-2,0 Z" fill="#87CEEB"/>
    </g>
    <g transform="translate(1120, 110) scale(0.9)">
      <path d="M0,-8 L2,0 L8,0 L3,3 L5,8 L0,5 L-5,8 L-3,3 L-8,0 L-2,0 Z" fill="#32CD32"/>
    </g>
  </g>
</svg>