<svg width="1600" height="440" viewBox="0 0 1600 440" xmlns="http://www.w3.org/2000/svg">
  <defs>
    <linearGradient id="cpBg" x1="0%" y1="0%" x2="100%" y2="100%">
      <stop offset="0%" stop-color="#FFF7EC"/>
      <stop offset="100%" stop-color="#FFF0E0"/>
    </linearGradient>
    <style>
      @keyframes floaty2 { 0%,100% { transform: translateY(0); } 50% { transform: translateY(-14px); } }
    </style>
  </defs>

  <rect width="1600" height="440" fill="url(#cpBg)"/>

  <!-- streamers top -->
  <path d="M0 0 Q 120 90 60 200" stroke="#FF6B6B" stroke-width="10" fill="none" stroke-linecap="round"/>
  <path d="M120 0 Q 220 80 180 190" stroke="#17C3B2" stroke-width="9" fill="none" stroke-linecap="round"/>
  <path d="M1600 0 Q 1480 90 1540 200" stroke="#7B5EA7" stroke-width="10" fill="none" stroke-linecap="round"/>
  <path d="M1480 0 Q 1380 80 1420 190" stroke="#FFCB05" stroke-width="9" fill="none" stroke-linecap="round"/>

  <!-- balloons -->
  <g style="animation:floaty2 6s ease-in-out infinite; transform-origin:250px 0;">
    <path d="M250 200 q14 40 0 80" stroke="#d9c07a" stroke-width="2" fill="none"/>
    <ellipse cx="250" cy="150" rx="46" ry="56" fill="#FF6B6B"/>
    <path d="M243 204 l7 14 7-14z" fill="#E8564F"/>
    <ellipse cx="236" cy="130" rx="12" ry="18" fill="#fff" opacity=".4"/>
  </g>
  <g style="animation:floaty2 7s ease-in-out .6s infinite; transform-origin:360px 0;">
    <path d="M360 226 q14 40 0 70" stroke="#d9c07a" stroke-width="2" fill="none"/>
    <ellipse cx="360" cy="178" rx="42" ry="52" fill="#FFCB05"/>
    <path d="M353 228 l7 14 7-14z" fill="#E6B404"/>
    <ellipse cx="347" cy="160" rx="11" ry="16" fill="#fff" opacity=".4"/>
  </g>
  <g style="animation:floaty2 6.4s ease-in-out .3s infinite; transform-origin:1350px 0;">
    <path d="M1350 200 q14 40 0 80" stroke="#d9c07a" stroke-width="2" fill="none"/>
    <ellipse cx="1350" cy="150" rx="46" ry="56" fill="#17C3B2"/>
    <path d="M1343 204 l7 14 7-14z" fill="#12A899"/>
    <ellipse cx="1336" cy="130" rx="12" ry="18" fill="#fff" opacity=".4"/>
  </g>
  <g style="animation:floaty2 7.4s ease-in-out .5s infinite; transform-origin:1240px 0;">
    <path d="M1240 226 q14 40 0 70" stroke="#d9c07a" stroke-width="2" fill="none"/>
    <ellipse cx="1240" cy="178" rx="42" ry="52" fill="#7B5EA7"/>
    <path d="M1233 228 l7 14 7-14z" fill="#654B8C"/>
    <ellipse cx="1227" cy="160" rx="11" ry="16" fill="#fff" opacity=".4"/>
  </g>

  <!-- confetti -->
  <g>
    <rect x="520" y="70" width="16" height="16" rx="3" fill="#FF6B6B" transform="rotate(20 528 78)"/>
    <rect x="1040" y="90" width="16" height="16" rx="3" fill="#17C3B2" transform="rotate(-15 1048 98)"/>
    <circle cx="600" cy="360" r="8" fill="#7B5EA7"/>
    <circle cx="980" cy="350" r="8" fill="#FFCB05"/>
    <rect x="700" y="360" width="14" height="14" rx="3" fill="#2D9CDB" transform="rotate(30 707 367)"/>
    <circle cx="880" cy="80" r="7" fill="#FF6B6B"/>
    <path d="M470 300 l10 6-10 6z" fill="#FFCB05"/>
    <path d="M1120 320 l10 6-10 6z" fill="#17C3B2"/>
  </g>
</svg>
