<svg width="1200" height="300" viewBox="0 0 1200 300" xmlns="http://www.w3.org/2000/svg">
  <defs>
    <linearGradient id="skyGradient" x1="0%" y1="0%" x2="0%" y2="100%">
      <stop offset="0%" style="stop-color:#87CEEB"/>
      <stop offset="50%" style="stop-color:#4682B4"/>
      <stop offset="100%" style="stop-color:#2F4F4F"/>
    </linearGradient>
    <radialGradient id="sunGradient" cx="50%" cy="50%" r="50%">
      <stop offset="0%" style="stop-color:#FFD700"/>
      <stop offset="100%" style="stop-color:#FFA500"/>
    </radialGradient>
    <linearGradient id="universityGradient" x1="0%" y1="0%" x2="0%" y2="100%">
      <stop offset="0%" style="stop-color:#F5F5DC"/>
      <stop offset="100%" style="stop-color:#D2B48C"/>
    </linearGradient>
    <linearGradient id="gownGradient" x1="0%" y1="0%" x2="0%" y2="100%">
      <stop offset="0%" style="stop-color:#191970"/>
      <stop offset="100%" style="stop-color:#000080"/>
    </linearGradient>
    <radialGradient id="capGradient" cx="30%" cy="30%" r="70%">
      <stop offset="0%" style="stop-color:#000080"/>
      <stop offset="100%" style="stop-color:#191970"/>
    </radialGradient>
  </defs>
  
  <!-- Academic sky background -->
  <rect width="1200" height="300" fill="url(#skyGradient)"/>
  
  <!-- Bright graduation day sun -->
  <circle cx="1000" cy="80" r="40" fill="url(#sunGradient)"/>
  <g stroke="#FFD700" stroke-width="2" opacity="0.6">
    <line x1="965" y1="45" x2="973" y2="53"/>
    <line x1="970" y1="37" x2="975" y2="50"/>
    <line x1="980" y1="33" x2="980" y2="45"/>
    <line x1="990" y1="30" x2="990" y2="43"/>
    <line x1="1000" y1="28" x2="1000" y2="40"/>
    <line x1="1010" y1="30" x2="1010" y2="43"/>
    <line x1="1020" y1="33" x2="1020" y2="45"/>
    <line x1="1030" y1="37" x2="1025" y2="50"/>
    <line x1="1035" y1="45" x2="1027" y2="53"/>
    <line x1="1040" y1="60" x2="1027" y2="65"/>
    <line x1="1045" y1="80" x2="1030" y2="80"/>
    <line x1="1040" y1="100" x2="1027" y2="95"/>
    <line x1="1035" y1="115" x2="1027" y2="107"/>
    <line x1="1030" y1="123" x2="1025" y2="110"/>
    <line x1="1020" y1="127" x2="1020" y2="115"/>
    <line x1="1010" y1="130" x2="1010" y2="117"/>
    <line x1="1000" y1="132" x2="1000" y2="120"/>
    <line x1="990" y1="130" x2="990" y2="117"/>
    <line x1="980" y1="127" x2="980" y2="115"/>
    <line x1="970" y1="123" x2="975" y2="110"/>
    <line x1="965" y1="115" x2="973" y2="107"/>
    <line x1="960" y1="100" x2="973" y2="95"/>
    <line x1="955" y1="80" x2="970" y2="80"/>
    <line x1="960" y1="60" x2="973" y2="65"/>
  </g>
  
  <!-- Majestic university building -->
  <g transform="translate(800, 200)" opacity="0.9">
    <!-- Main university building -->
    <rect x="-100" y="-80" width="200" height="100" fill="url(#universityGradient)"/>
    <polygon points="-110,-80 0,-120 110,-80" fill="#8FBC8F"/>
    
    <!-- University details -->
    <rect x="-95" y="-75" width="190" height="8" fill="#D2691E"/>
    <rect x="-90" y="-60" width="180" height="5" fill="#D2691E"/>
    <rect x="-85" y="-35" width="170" height="5" fill="#D2691E"/>
    
    <!-- Clock tower -->
    <rect x="-15" y="-105" width="30" height="45" fill="url(#universityGradient)"/>
    <polygon points="-20,-105 0,-130 20,-105" fill="#8FBC8F"/>
    
    <!-- Clock face -->
    <circle cx="0" cy="-90" r="12" fill="#FFFFFF"/>
    <circle cx="0" cy="-90" r="10" fill="#F5F5F5"/>
    <line x1="0" y1="-90" x2="0" y2="-85" stroke="#000000" stroke-width="2"/>
    <line x1="0" y1="-90" x2="5" y2="-90" stroke="#000000" stroke-width="1.5"/>
    <circle cx="0" cy="-90" r="2" fill="#000000"/>
    
    <!-- Clock tower spire -->
    <polygon points="-8,-130 0,-145 8,-130" fill="#8FBC8F"/>
    <rect x="-2" y="-150" width="4" height="8" fill="#8B4513"/>
    <circle cx="0" cy="-152" r="2" fill="#FFD700"/>
    
    <!-- Grand columns -->
    <rect x="-80" y="-70" width="8" height="80" fill="#FFFFFF"/>
    <rect x="-60" y="-70" width="8" height="80" fill="#FFFFFF"/>
    <rect x="-40" y="-70" width="8" height="80" fill="#FFFFFF"/>
    <rect x="-20" y="-70" width="8" height="80" fill="#FFFFFF"/>
    <rect x="0" y="-70" width="8" height="80" fill="#FFFFFF"/>
    <rect x="20" y="-70" width="8" height="80" fill="#FFFFFF"/>
    <rect x="40" y="-70" width="8" height="80" fill="#FFFFFF"/>
    <rect x="60" y="-70" width="8" height="80" fill="#FFFFFF"/>
    <rect x="80" y="-70" width="8" height="80" fill="#FFFFFF"/>
    
    <!-- Column capitals -->
    <rect x="-84" y="-75" width="16" height="8" fill="#F0F0F0"/>
    <rect x="-64" y="-75" width="16" height="8" fill="#F0F0F0"/>
    <rect x="-44" y="-75" width="16" height="8" fill="#F0F0F0"/>
    <rect x="-24" y="-75" width="16" height="8" fill="#F0F0F0"/>
    <rect x="-4" y="-75" width="16" height="8" fill="#F0F0F0"/>
    <rect x="16" y="-75" width="16" height="8" fill="#F0F0F0"/>
    <rect x="36" y="-75" width="16" height="8" fill="#F0F0F0"/>
    <rect x="56" y="-75" width="16" height="8" fill="#F0F0F0"/>
    <rect x="76" y="-75" width="16" height="8" fill="#F0F0F0"/>
    
    <!-- Column bases -->
    <rect x="-84" y="10" width="16" height="6" fill="#F0F0F0"/>
    <rect x="-64" y="10" width="16" height="6" fill="#F0F0F0"/>
    <rect x="-44" y="10" width="16" height="6" fill="#F0F0F0"/>
    <rect x="-24" y="10" width="16" height="6" fill="#F0F0F0"/>
    <rect x="-4" y="10" width="16" height="6" fill="#F0F0F0"/>
    <rect x="16" y="10" width="16" height="6" fill="#F0F0F0"/>
    <rect x="36" y="10" width="16" height="6" fill="#F0F0F0"/>
    <rect x="56" y="10" width="16" height="6" fill="#F0F0F0"/>
    <rect x="76" y="10" width="16" height="6" fill="#F0F0F0"/>
    
    <!-- Grand entrance stairs -->
    <rect x="-110" y="16" width="220" height="8" fill="#D3D3D3"/>
    <rect x="-105" y="24" width="210" height="6" fill="#D3D3D3"/>
    <rect x="-100" y="30" width="200" height="5" fill="#D3D3D3"/>
    <rect x="-95" y="35" width="190" height="4" fill="#D3D3D3"/>
    
    <!-- University windows -->
    <rect x="-85" y="-55" width="12" height="18" rx="2" fill="#87CEEB"/>
    <rect x="-65" y="-55" width="12" height="18" rx="2" fill="#87CEEB"/>
    <rect x="-25" y="-55" width="12" height="18" rx="2" fill="#87CEEB"/>
    <rect x="25" y="-55" width="12" height="18" rx="2" fill="#87CEEB"/>
    <rect x="65" y="-55" width="12" height="18" rx="2" fill="#87CEEB"/>
    <rect x="85" y="-55" width="12" height="18" rx="2" fill="#87CEEB"/>
    
    <!-- Window frames -->
    <line x1="-79" y1="-55" x2="-79" y2="-37" stroke="#8B4513" stroke-width="1"/>
    <line x1="-85" y1="-46" x2="-73" y2="-46" stroke="#8B4513" stroke-width="1"/>
    <line x1="-59" y1="-55" x2="-59" y2="-37" stroke="#8B4513" stroke-width="1"/>
    <line x1="-65" y1="-46" x2="-53" y2="-46" stroke="#8B4513" stroke-width="1"/>
    <line x1="-19" y1="-55" x2="-19" y2="-37" stroke="#8B4513" stroke-width="1"/>
    <line x1="-25" y1="-46" x2="-13" y2="-46" stroke="#8B4513" stroke-width="1"/>
    <line x1="31" y1="-55" x2="31" y2="-37" stroke="#8B4513" stroke-width="1"/>
    <line x1="25" y1="-46" x2="37" y2="-46" stroke="#8B4513" stroke-width="1"/>
    <line x1="71" y1="-55" x2="71" y2="-37" stroke="#8B4513" stroke-width="1"/>
    <line x1="65" y1="-46" x2="77" y2="-46" stroke="#8B4513" stroke-width="1"/>
    <line x1="91" y1="-55" x2="91" y2="-37" stroke="#8B4513" stroke-width="1"/>
    <line x1="85" y1="-46" x2="97" y2="-46" stroke="#8B4513" stroke-width="1"/>
    
    <!-- University seal/emblem -->
    <circle cx="0" cy="-25" r="15" fill="#FFD700"/>
    <circle cx="0" cy="-25" r="12" fill="#FFFFFF"/>
    <text x="0" y="-20" text-anchor="middle" font-family="serif" font-size="8" font-weight="bold" fill="#191970">UNIV</text>
    <circle cx="0" cy="-25" r="8" fill="none" stroke="#191970" stroke-width="1"/>
    
    <!-- Decorative arches -->
    <path d="M-90 -30 Q-80 -40 -70 -30" fill="none" stroke="#D2691E" stroke-width="2"/>
    <path d="M-50 -30 Q-40 -40 -30 -30" fill="none" stroke="#D2691E" stroke-width="2"/>
    <path d="M30 -30 Q40 -40 50 -30" fill="none" stroke="#D2691E" stroke-width="2"/>
    <path d="M70 -30 Q80 -40 90 -30" fill="none" stroke="#D2691E" stroke-width="2"/>
  </g>
  
  <!-- Graduation ceremony stage -->
  <g transform="translate(400, 250)" opacity="0.8">
    <!-- Stage platform -->
    <rect x="-80" y="-15" width="160" height="25" fill="#8B4513"/>
    <rect x="-85" y="-20" width="170" height="5" fill="#A0522D"/>
    
    <!-- Stage steps -->
    <rect x="-90" y="10" width="180" height="6" fill="#A0522D"/>
    <rect x="-85" y="16" width="170" height="5" fill="#A0522D"/>
    <rect x="-80" y="21" width="160" height="4" fill="#A0522D"/>
    
    <!-- Podium -->
    <rect x="-10" y="-35" width="20" height="20" fill="#8B4513"/>
    <rect x="-12" y="-37" width="24" height="4" fill="#A0522D"/>
    
    <!-- Microphone on podium -->
    <circle cx="0" cy="-39" r="2" fill="#C0C0C0"/>
    <rect x="-1" y="-44" width="2" height="5" fill="#C0C0C0"/>
    <circle cx="0" cy="-46" r="1.5" fill="#808080"/>
    
    <!-- Academic banner behind stage -->
    <rect x="-70" y="-50" width="140" height="20" fill="#191970"/>
    <text x="0" y="-37" text-anchor="middle" font-family="serif" font-size="10" font-weight="bold" fill="#FFD700">GRADUATION 2025</text>
    
    <!-- Decorative border on banner -->
    <rect x="-68" y="-48" width="136" height="2" fill="#FFD700"/>
    <rect x="-68" y="-32" width="136" height="2" fill="#FFD700"/>
  </g>
  
  <!-- Main graduate in center -->
  <g transform="translate(600, 180)">
    <!-- Graduate's shadow -->
    <ellipse cx="3" cy="95" rx="35" ry="8" fill="#000000" opacity="0.2"/>
    
    <!-- Academic gown -->
    <ellipse cx="0" cy="35" rx="30" ry="40" fill="url(#gownGradient)"/>
    <rect x="-25" y="-5" width="50" height="65" fill="url(#gownGradient)"/>
    
    <!-- Gown details and pleats -->
    <line x1="-20" y1="-5" x2="-20" y2="60" stroke="#000080" stroke-width="1"/>
    <line x1="-10" y1="-5" x2="-10" y2="60" stroke="#000080" stroke-width="1"/>
    <line x1="0" y1="-5" x2="0" y2="60" stroke="#000080" stroke-width="1"/>
    <line x1="10" y1="-5" x2="10" y2="60" stroke="#000080" stroke-width="1"/>
    <line x1="20" y1="-5" x2="20" y2="60" stroke="#000080" stroke-width="1"/>
    
    <!-- Academic hood -->
    <path d="M-25 -5 Q0 -15 25 -5 Q20 10 15 20 Q0 25 -15 20 Q-20 10 -25 -5" fill="#FFD700"/>
    <path d="M-20 0 Q0 -8 20 0 Q15 12 10 18 Q0 20 -10 18 Q-15 12 -20 0" fill="#FFFFFF"/>
    
    <!-- Hood trim -->
    <path d="M-25 -5 Q0 -15 25 -5" fill="none" stroke="#8B0000" stroke-width="2"/>
    
    <!-- Academic collar -->
    <ellipse cx="0" cy="-5" rx="20" ry="8" fill="#FFFFFF"/>
    <ellipse cx="0" cy="-5" rx="18" ry="6" fill="#F5F5F5"/>
    
    <!-- Head and neck -->
    <circle cx="0" cy="-18" r="15" fill="#FFDBAC"/>
    <ellipse cx="0" cy="-7" rx="5" ry="8" fill="#FFDBAC"/>
    
    <!-- Graduate's hair -->
    <path d="M-13 -30 Q0 -35 13 -30 Q11 -22 8 -25 Q4 -26 0 -25 Q-4 -26 -8 -25 Q-11 -22 -13 -30" fill="#8B4513"/>
    <path d="M-10 -28 Q-5 -32 0 -28 Q5 -32 10 -28" fill="#A0522D"/>
    
    <!-- Graduation cap (mortarboard) -->
    <ellipse cx="0" cy="-30" rx="18" ry="4" fill="url(#capGradient)"/>
    <ellipse cx="0" cy="-32" rx="18" ry="3" fill="#000080"/>
    
    <!-- Cap button -->
    <circle cx="0" cy="-32" r="2" fill="#FFD700"/>
    
    <!-- Detailed tassel -->
    <g transform="translate(16, -30)">
      <!-- Tassel cord -->
      <line x1="0" y1="0" x2="8" y2="15" stroke="#FFD700" stroke-width="2"/>
      
      <!-- Tassel strands -->
      <line x1="8" y1="15" x2="7" y2="25" stroke="#FFD700" stroke-width="1"/>
      <line x1="8" y1="15" x2="8" y2="26" stroke="#FFD700" stroke-width="1"/>
      <line x1="8" y1="15" x2="9" y2="25" stroke="#FFD700" stroke-width="1"/>
      <line x1="8" y1="15" x2="6" y2="24" stroke="#FFD700" stroke-width="1"/>
      <line x1="8" y1="15" x2="10" y2="24" stroke="#FFD700" stroke-width="1"/>
      <line x1="8" y1="15" x2="7.5" y2="27" stroke="#FFD700" stroke-width="1"/>
      <line x1="8" y1="15" x2="8.5" y2="27" stroke="#FFD700" stroke-width="1"/>
      <line x1="8" y1="15" x2="6.5" y2="26" stroke="#FFD700" stroke-width="1"/>
      <line x1="8" y1="15" x2="9.5" y2="26" stroke="#FFD700" stroke-width="1"/>
      
      <!-- Tassel tip ornament -->
      <ellipse cx="8" cy="15" rx="3" ry="2" fill="#FFD700"/>
    </g>
    
    <!-- Proud facial expression -->
    <ellipse cx="-4" cy="-21" rx="3" ry="2" fill="#FFFFFF"/>
    <ellipse cx="4" cy="-21" rx="3" ry="2" fill="#FFFFFF"/>
    <circle cx="-4" cy="-21" r="2.5" fill="#228B22"/>
    <circle cx="4" cy="-21" r="2.5" fill="#228B22"/>
    <circle cx="-3" cy="-22" r="1.2" fill="#FFFFFF"/>
    <circle cx="5" cy="-22" r="1.2" fill="#FFFFFF"/>
    
    <!-- Confident eyebrows -->
    <ellipse cx="-4" cy="-25" rx="4" ry="1.5" fill="#8B4513"/>
    <ellipse cx="4" cy="-25" rx="4" ry="1.5" fill="#8B4513"/>
    
    <!-- Proud smile -->
    <path d="M-6 -14 Q0 -10 6 -14" fill="none" stroke="#8B4513" stroke-width="2"/>
    <ellipse cx="0" cy="-13" rx="5" ry="2" fill="#FF69B4"/>
    
    <!-- Arms holding diploma -->
    <ellipse cx="-30" cy="5" rx="15" ry="8" fill="#FFDBAC" transform="rotate(-25 -30 5)"/>
    <ellipse cx="30" cy="5" rx="15" ry="8" fill="#FFDBAC" transform="rotate(25 30 5)"/>
    
    <!-- Hands -->
    <circle cx="-35" cy="15" r="6" fill="#FFDBAC"/>
    <circle cx="35" cy="15" r="6" fill="#FFDBAC"/>
    
    <!-- Diploma in hands -->
    <rect x="-25" y="10" width="50" height="8" rx="2" fill="#F5F5DC" transform="rotate(-5 0 14)"/>
    <rect x="-23" y="11" width="46" height="6" rx="1" fill="#FFFFFF" transform="rotate(-5 0 14)"/>
    
    <!-- Diploma seal -->
    <circle cx="15" cy="13" r="3" fill="#FFD700" transform="rotate(-5 0 14)"/>
    <circle cx="15" cy="13" r="2" fill="#8B0000" transform="rotate(-5 0 14)"/>
    
    <!-- Ribbon on diploma -->
    <rect x="-5" y="9" width="3" height="12" fill="#8B0000" transform="rotate(-5 0 14)"/>
    <path d="M-5 21 Q-3.5 24 -2 21 Q-0.5 18 1 21" fill="#8B0000" transform="rotate(-5 0 14)"/>
    
    <!-- Legs under gown -->
    <ellipse cx="-10" cy="85" rx="8" ry="20" fill="#000000"/>
    <ellipse cx="10" cy="85" rx="8" ry="20" fill="#000000"/>
    
    <!-- Dress shoes -->
    <ellipse cx="-10" cy="105" rx="12" ry="5" fill="#000000"/>
    <ellipse cx="10" cy="105" rx="12" ry="5" fill="#000000"/>
    <ellipse cx="-10" cy="103" rx="10" ry="3" fill="#1a1a1a"/>
    <ellipse cx="10" cy="103" rx="10" ry="3" fill="#1a1a1a"/>
  </g>
  
  <!-- Family members watching -->
  <g transform="translate(200, 220)">
    <!-- Proud parent 1 -->
    <g>
      <!-- Body -->
      <ellipse cx="0" cy="15" rx="15" ry="20" fill="#4169E1"/>
      <rect x="-12" y="-5" width="24" height="30" fill="#4169E1"/>
      
      <!-- Head -->
      <circle cx="0" cy="-12" r="12" fill="#FFDBAC"/>
      
      <!-- Hair -->
      <path d="M-10 -22 Q0 -26 10 -22 Q8 -18 5 -20 Q0 -21 -5 -20 Q-8 -18 -10 -22" fill="#8B4513"/>
      
      <!-- Excited expression -->
      <circle cx="-3" cy="-15" r="2" fill="#000000"/>
      <circle cx="3" cy="-15" r="2" fill="#000000"/>
      <circle cx="-3" cy="-16" r="1" fill="#FFFFFF"/>
      <circle cx="3" cy="-16" r="1" fill="#FFFFFF"/>
      
      <!-- Big smile -->
      <path d="M-5 -8 Q0 -5 5 -8" fill="none" stroke="#000" stroke-width="1.5"/>
      
      <!-- Arms raised in celebration -->
      <ellipse cx="-20" cy="0" rx="10" ry="5" fill="#FFDBAC" transform="rotate(-45 -20 0)"/>
      <ellipse cx="20" cy="0" rx="10" ry="5" fill="#FFDBAC" transform="rotate(45 20 0)"/>
      
      <!-- Hands clapping -->
      <circle cx="-25" cy="-5" r="4" fill="#FFDBAC"/>
      <circle cx="25" cy="-5" r="4" fill="#FFDBAC"/>
      
      <!-- Camera in hand -->
      <rect x="20" y="-8" width="8" height="5" fill="#2F2F2F" rx="1"/>
      <circle cx="24" cy="-5.5" r="2" fill="#000000"/>
      <circle cx="24" cy="-5.5" r="1.5" fill="#4169E1"/>
      <rect x="22" y="-9" width="4" height="1" fill="#FFD700"/>
      
      <!-- Legs -->
      <ellipse cx="-6" cy="40" rx="5" ry="15" fill="#8B4513"/>
      <ellipse cx="6" cy="40" rx="5" ry="15" fill="#8B4513"/>
      
      <!-- Shoes -->
      <ellipse cx="-6" cy="55" rx="8" ry="4" fill="#000000"/>
      <ellipse cx="6" cy="55" rx="8" ry="4" fill="#000000"/>
    </g>
  </g>
  
  <!-- Proud parent 2 -->
  <g transform="translate(950, 215)">
    <!-- Body with dress -->
    <ellipse cx="0" cy="18" rx="18" ry="25" fill="#FF69B4"/>
    <rect x="-15" y="-7" width="30" height="35" fill="#FF69B4"/>
    
    <!-- Dress pattern -->
    <circle cx="-8" cy="5" r="2" fill="#FFFFFF" opacity="0.6"/>
    <circle cx="8" cy="10" r="2" fill="#FFFFFF" opacity="0.6"/>
    <circle cx="0" cy="15" r="2" fill="#FFFFFF" opacity="0.6"/>
    <circle cx="-6" cy="22" r="2" fill="#FFFFFF" opacity="0.6"/>
    <circle cx="6" cy="25" r="2" fill="#FFFFFF" opacity="0.6"/>
    
    <!-- Head -->
    <circle cx="0" cy="-10" r="11" fill="#FFDBAC"/>
    
    <!-- Hair -->
    <path d="M-9 -19 Q0 -23 9 -19 Q7 -15 4 -17 Q0 -18 -4 -17 Q-7 -15 -9 -19" fill="#DAA520"/>
    <circle cx="-6" cy="-16" r="3" fill="#DAA520"/>
    <circle cx="6" cy="-16" r="3" fill="#DAA520"/>
    
    <!-- Happy tears of joy -->
    <circle cx="-3" cy="-13" r="2" fill="#000000"/>
    <circle cx="3" cy="-13" r="2" fill="#000000"/>
    <circle cx="-3" cy="-14" r="0.8" fill="#FFFFFF"/>
    <circle cx="3" cy="-14" r="0.8" fill="#FFFFFF"/>
    
    <!-- Tears -->
    <ellipse cx="-5" cy="-10" rx="1" ry="3" fill="#87CEEB"/>
    <ellipse cx="5" cy="-10" rx="1" ry="3" fill="#87CEEB"/>
    
    <!-- Emotional smile -->
    <path d="M-4 -6 Q0 -3 4 -6" fill="none" stroke="#000" stroke-width="1.5"/>
    
    <!-- Arms with tissues -->
    <ellipse cx="-18" cy="3" rx="8" ry="4" fill="#FFDBAC" transform="rotate(-15 -18 3)"/>
    <ellipse cx="18" cy="3" rx="8" ry="4" fill="#FFDBAC" transform="rotate(15 18 3)"/>
    
    <!-- Hands -->
    <circle cx="-22" cy="0" r="4" fill="#FFDBAC"/>
    <circle cx="22" cy="0" r="4" fill="#FFDBAC"/>
    
    <!-- Tissue in hand -->
    <rect x="-26" y="-3" width="6" height="4" fill="#FFFFFF" transform="rotate(-15 -23 -1)"/>
    
    <!-- Purse -->
    <ellipse cx="25" cy="8" rx="5" ry="8" fill="#8B4513"/>
    <rect x="23" y="5" width="4" height="2" fill="#FFD700"/>
    
    <!-- Legs -->
    <ellipse cx="-7" cy="50" rx="4" ry="12" fill="#FFDBAC"/>
    <ellipse cx="7" cy="50" rx="4" ry="12" fill="#FFDBAC"/>
    
    <!-- High heels -->
    <ellipse cx="-7" cy="62" rx="6" ry="3" fill="#8B0000"/>
    <ellipse cx="7" cy="62" rx="6" ry="3" fill="#8B0000"/>
    <rect x="-8" y="60" width="2" height="5" fill="#8B0000"/>
    <rect x="6" y="60" width="2" height="5" fill="#8B0000"/>
  </g>
  
  <!-- Diploma in graduate's hand -->
  <g transform="translate(350, 160)">
    <rect x="0" y="0" width="20" height="15" rx="2" fill="#F5F5DC"/>
    <rect x="2" y="2" width="16" height="11" rx="1" fill="#FFFFFF"/>
    <line x1="4" y1="5" x2="16" y2="5" stroke="#4169E1" stroke-width="0.8"/>
    <line x1="4" y1="8" x2="14" y2="8" stroke="#4169E1" stroke-width="0.6"/>
    <line x1="4" y1="11" x2="12" y2="11" stroke="#4169E1" stroke-width="0.4"/>
    
    <!-- Red ribbon -->
    <ellipse cx="22" cy="7.5" rx="4" ry="6" fill="#DC143C"/>
    <path d="M22 1.5 Q26 7.5 22 13.5 Q18 7.5 22 1.5" fill="#DC143C"/>
  </g>
  
  <!-- Books flying/floating -->
  <g transform="translate(600, 120)">
    <rect x="0" y="0" width="15" height="20" rx="1" fill="#8B0000" transform="rotate(15 7.5 10)"/>
    <rect x="2" y="2" width="11" height="16" rx="0.5" fill="#DC143C" transform="rotate(15 7.5 10)"/>
    <line x1="3" y1="8" x2="12" y2="8" stroke="#FFD700" stroke-width="0.5" transform="rotate(15 7.5 10)"/>
  </g>
  
  <g transform="translate(150, 100)">
    <rect x="0" y="0" width="12" height="16" rx="1" fill="#228B22" transform="rotate(-20 6 8)"/>
    <rect x="1" y="1" width="10" height="14" rx="0.5" fill="#32CD32" transform="rotate(-20 6 8)"/>
    <line x1="2" y1="6" x2="10" y2="6" stroke="#FFD700" stroke-width="0.4" transform="rotate(-20 6 8)"/>
  </g>
  
  <!-- Academic achievements floating -->
  <g transform="translate(750, 100)" opacity="0.8">
    <!-- Trophy -->
    <rect x="-3" y="5" width="6" height="8" fill="#FFD700"/>
    <ellipse cx="0" cy="0" rx="8" ry="6" fill="#FFD700"/>
    <ellipse cx="0" cy="0" rx="6" ry="4" fill="#FFA500"/>
    <rect x="-1" y="13" width="2" height="5" fill="#8B4513"/>
    <rect x="-4" y="18" width="8" height="2" fill="#8B4513"/>
  </g>
  
  <!-- Stars of excellence -->
  <g fill="#FFD700" opacity="0.9">
    <polygon points="300,80 302,86 308,86 303,90 305,96 300,92 295,96 297,90 292,86 298,86"/>
    <polygon points="800,60 802,66 808,66 803,70 805,76 800,72 795,76 797,70 792,66 798,66"/>
    <polygon points="1000,120 1002,126 1008,126 1003,130 1005,136 1000,132 995,136 997,130 992,126 998,126"/>
    <polygon points="100,150 102,156 108,156 103,160 105,166 100,162 95,166 97,160 92,156 98,156"/>
  </g>
  
  <!-- Confetti in school colors -->
  <g opacity="0.7">
    <rect x="200" y="70" width="3" height="6" fill="#4169E1" transform="rotate(30 201.5 73)"/>
    <rect x="500" y="90" width="3" height="6" fill="#FFD700" transform="rotate(-45 501.5 93)"/>
    <rect x="700" y="50" width="3" height="6" fill="#4169E1" transform="rotate(60 701.5 53)"/>
    <rect x="900" y="110" width="3" height="6" fill="#FFD700" transform="rotate(-30 901.5 113)"/>
    <circle cx="350" cy="130" r="1.5" fill="#4169E1"/>
    <circle cx="650" cy="140" r="1.5" fill="#FFD700"/>
    <circle cx="850" cy="80" r="1.5" fill="#4169E1"/>
  </g>
  
  <!-- Laurel wreaths floating -->
  <g transform="translate(150, 180)" opacity="0.6">
    <path d="M-15 0 Q-10 -8 0 -10 Q10 -8 15 0 Q10 8 0 10 Q-10 8 -15 0" fill="none" stroke="#228B22" stroke-width="2"/>
    <ellipse cx="-8" cy="-3" rx="2" ry="4" fill="#228B22" transform="rotate(-30 -8 -3)"/>
    <ellipse cx="8" cy="-3" rx="2" ry="4" fill="#228B22" transform="rotate(30 8 -3)"/>
    <ellipse cx="-8" cy="3" rx="2" ry="4" fill="#228B22" transform="rotate(30 -8 3)"/>
    <ellipse cx="8" cy="3" rx="2" ry="4" fill="#228B22" transform="rotate(-30 8 3)"/>
  </g>
  
  <!-- Knowledge symbols (light bulbs) -->
  <g transform="translate(1050, 150)" opacity="0.7">
    <circle cx="0" cy="0" r="8" fill="#FFD700"/>
    <rect x="-3" y="8" width="6" height="4" rx="1" fill="#C0C0C0"/>
    <line x1="-6" y1="-3" x2="-12" y2="-8" stroke="#FFD700" stroke-width="1.5"/>
    <line x1="6" y1="-3" x2="12" y2="-8" stroke="#FFD700" stroke-width="1.5"/>
    <line x1="0" y1="-8" x2="0" y2="-15" stroke="#FFD700" stroke-width="1.5"/>
  </g>
</svg>