<svg width="1200" height="300" viewBox="0 0 1200 300" xmlns="http://www.w3.org/2000/svg">
  <defs>
    <!-- Realistic gradients and effects -->
    <linearGradient id="nightSky" x1="0%" y1="0%" x2="0%" y2="100%">
      <stop offset="0%" style="stop-color:#0B1426"/>
      <stop offset="30%" style="stop-color:#1A237E"/>
      <stop offset="70%" style="stop-color:#283593"/>
      <stop offset="100%" style="stop-color:#3949AB"/>
    </linearGradient>
    
    <radialGradient id="moonGlow" cx="50%" cy="50%" r="80%">
      <stop offset="0%" style="stop-color:#FFFACD"/>
      <stop offset="40%" style="stop-color:#F0F8FF"/>
      <stop offset="80%" style="stop-color:#E6E6FA"/>
      <stop offset="100%" style="stop-color:#D8BFD8"/>
    </radialGradient>
    
    <linearGradient id="snowGround" x1="0%" y1="0%" x2="0%" y2="100%">
      <stop offset="0%" style="stop-color:#FFFFFF"/>
      <stop offset="50%" style="stop-color:#F0F8FF"/>
      <stop offset="100%" style="stop-color:#E0E6FF"/>
    </linearGradient>
    
    <linearGradient id="houseWall" x1="0%" y1="0%" x2="100%" y2="100%">
      <stop offset="0%" style="stop-color:#8B4513"/>
      <stop offset="50%" style="stop-color:#A0522D"/>
      <stop offset="100%" style="stop-color:#654321"/>
    </linearGradient>
    
    <linearGradient id="roofSnow" x1="0%" y1="0%" x2="0%" y2="100%">
      <stop offset="0%" style="stop-color:#FFFFFF"/>
      <stop offset="50%" style="stop-color:#F8F8FF"/>
      <stop offset="100%" style="stop-color:#F0F0F0"/>
    </linearGradient>
    
    <radialGradient id="windowGlow" cx="50%" cy="50%" r="60%">
      <stop offset="0%" style="stop-color:#FFE55C"/>
      <stop offset="60%" style="stop-color:#FFA500"/>
      <stop offset="100%" style="stop-color:#FF8C00"/>
    </radialGradient>
    
    <linearGradient id="treeGreen" x1="0%" y1="0%" x2="0%" y2="100%">
      <stop offset="0%" style="stop-color:#228B22"/>
      <stop offset="40%" style="stop-color:#006400"/>
      <stop offset="100%" style="stop-color:#013220"/>
    </linearGradient>
    
    <radialGradient id="santaSuit" cx="30%" cy="30%" r="70%">
      <stop offset="0%" style="stop-color:#FF6B6B"/>
      <stop offset="60%" style="stop-color:#DC143C"/>
      <stop offset="100%" style="stop-color:#8B0000"/>
    </radialGradient>
    
    <linearGradient id="reindeerBrown" x1="0%" y1="0%" x2="100%" y2="100%">
      <stop offset="0%" style="stop-color:#D2691E"/>
      <stop offset="50%" style="stop-color:#A0522D"/>
      <stop offset="100%" style="stop-color:#8B4513"/>
    </linearGradient>
    
    <!-- Gift box gradients -->
    <linearGradient id="giftRed" x1="0%" y1="0%" x2="100%" y2="100%">
      <stop offset="0%" style="stop-color:#FF4444"/>
      <stop offset="50%" style="stop-color:#CC0000"/>
      <stop offset="100%" style="stop-color:#990000"/>
    </linearGradient>
    
    <linearGradient id="giftBlue" x1="0%" y1="0%" x2="100%" y2="100%">
      <stop offset="0%" style="stop-color:#4444FF"/>
      <stop offset="50%" style="stop-color:#0000CC"/>
      <stop offset="100%" style="stop-color:#000099"/>
    </linearGradient>
    
    <linearGradient id="giftGreen" x1="0%" y1="0%" x2="100%" y2="100%">
      <stop offset="0%" style="stop-color:#44FF44"/>
      <stop offset="50%" style="stop-color:#00CC00"/>
      <stop offset="100%" style="stop-color:#009900"/>
    </linearGradient>
    
    <!-- Advanced shadow filters -->
    <filter id="dropShadow" x="-50%" y="-50%" width="200%" height="200%">
      <feGaussianBlur in="SourceAlpha" stdDeviation="3"/>
      <feOffset dx="2" dy="4" result="offset"/>
      <feFlood flood-color="#000000" flood-opacity="0.3"/>
      <feComposite in2="offset" operator="in"/>
      <feMerge>
        <feMergeNode/>
        <feMergeNode in="SourceGraphic"/>
      </feMerge>
    </filter>
    
    <filter id="softGlow" x="-50%" y="-50%" width="200%" height="200%">
      <feGaussianBlur stdDeviation="4" result="coloredBlur"/>
      <feMerge>
        <feMergeNode in="coloredBlur"/>
        <feMergeNode in="SourceGraphic"/>
      </feMerge>
    </filter>
    
    <filter id="innerShadow" x="-50%" y="-50%" width="200%" height="200%">
      <feOffset dx="0" dy="2"/>
      <feGaussianBlur stdDeviation="2" result="offset-blur"/>
      <feFlood flood-color="#000000" flood-opacity="0.2"/>
      <feComposite in2="offset-blur" operator="in"/>
      <feComposite in2="SourceGraphic" operator="atop"/>
    </filter>
  </defs>
  
  <!-- Night sky with realistic depth -->
  <rect width="1200" height="300" fill="url(#nightSky)"/>
  
  <!-- Stars with twinkling effect -->
  <g opacity="0.9">
    <circle cx="100" cy="30" r="1.5" fill="#FFFFFF">
      <animate attributeName="opacity" values="0.3;1;0.3" dur="2s" repeatCount="indefinite"/>
    </circle>
    <circle cx="200" cy="50" r="1" fill="#FFFFFF">
      <animate attributeName="opacity" values="0.5;1;0.5" dur="3s" repeatCount="indefinite"/>
    </circle>
    <circle cx="350" cy="25" r="1.2" fill="#FFFFFF">
      <animate attributeName="opacity" values="0.4;1;0.4" dur="2.5s" repeatCount="indefinite"/>
    </circle>
    <circle cx="500" cy="40" r="0.8" fill="#FFFFFF">
      <animate attributeName="opacity" values="0.6;1;0.6" dur="1.8s" repeatCount="indefinite"/>
    </circle>
    <circle cx="650" cy="35" r="1.3" fill="#FFFFFF">
      <animate attributeName="opacity" values="0.3;1;0.3" dur="2.2s" repeatCount="indefinite"/>
    </circle>
    <circle cx="800" cy="20" r="1" fill="#FFFFFF">
      <animate attributeName="opacity" values="0.5;1;0.5" dur="2.8s" repeatCount="indefinite"/>
    </circle>
    <circle cx="950" cy="45" r="1.1" fill="#FFFFFF">
      <animate attributeName="opacity" values="0.4;1;0.4" dur="2.1s" repeatCount="indefinite"/>
    </circle>
    <circle cx="1100" cy="30" r="0.9" fill="#FFFFFF">
      <animate attributeName="opacity" values="0.6;1;0.6" dur="2.6s" repeatCount="indefinite"/>
    </circle>
  </g>
  
  <!-- Moon with soft glow -->
  <circle cx="1050" cy="60" r="25" fill="url(#moonGlow)" filter="url(#softGlow)"/>
  
  <!-- Snow-covered ground -->
  <ellipse cx="600" cy="300" rx="800" ry="50" fill="url(#snowGround)" filter="url(#dropShadow)"/>
  
  <!-- Christmas Tree (main centerpiece) -->
  <g transform="translate(100, -85) scale(2.5)" filter="url(#dropShadow)">
    <!-- Tree trunk -->
    <rect x="28" y="140" width="14" height="30" fill="#8B4513"/>
    
    <!-- Tree layers (bottom to top) -->
    <polygon points="35,140 15,100 55,100" fill="url(#treeGreen)"/>
    <polygon points="35,120 20,85 50,85" fill="url(#treeGreen)"/>
    <polygon points="35,100 25,70 45,70" fill="url(#treeGreen)"/>
    
    <!-- Christmas lights -->
    <circle cx="25" cy="105" r="2" fill="#FFD700"/>
    <circle cx="40" cy="110" r="2" fill="#FF0000"/>
    <circle cx="30" cy="125" r="2" fill="#0000FF"/>
    <circle cx="45" cy="95" r="2" fill="#00FF00"/>
    <circle cx="20" cy="120" r="2" fill="#FF69B4"/>
    <circle cx="48" cy="115" r="2" fill="#FFA500"/>
    
    <!-- Star on top -->
    <polygon points="35,70 32,62 38,62" fill="#FFD700" filter="url(#softGlow)"/>
    <polygon points="35,70 29,65 41,65" fill="#FFD700" filter="url(#softGlow)"/>
  </g>
  
  <!-- Santa Claus -->
  <g transform="translate(400, 180)" filter="url(#dropShadow)">
    <!-- Santa's body -->
    <ellipse cx="0" cy="30" rx="15" ry="25" fill="url(#santaSuit)"/>
    
    <!-- Santa's head -->
    <circle cx="0" cy="0" r="12" fill="#FFDBAC"/>
    
    <!-- Santa's hat -->
    <polygon points="-8,-8 8,-8 12,-20 5,-22" fill="url(#santaSuit)"/>
    <circle cx="5" cy="-22" r="3" fill="#FFFFFF"/>
    
    <!-- Santa's beard -->
    <ellipse cx="0" cy="8" rx="8" ry="6" fill="#FFFFFF"/>
    
    <!-- Santa's belt -->
    <rect x="-12" y="25" width="24" height="5" fill="#000000"/>
    <rect x="-3" y="25" width="6" height="5" fill="#FFD700"/>
    
    <!-- Santa's arms -->
    <ellipse cx="-18" cy="15" rx="5" ry="12" fill="url(#santaSuit)"/>
    <ellipse cx="18" cy="15" rx="5" ry="12" fill="url(#santaSuit)"/>
    
    <!-- Santa's legs -->
    <ellipse cx="-8" cy="55" rx="4" ry="15" fill="url(#santaSuit)"/>
    <ellipse cx="8" cy="55" rx="4" ry="15" fill="url(#santaSuit)"/>
    
    <!-- Santa's boots -->
    <ellipse cx="-8" cy="70" rx="6" ry="4" fill="#000000"/>
    <ellipse cx="8" cy="70" rx="6" ry="4" fill="#000000"/>
    
    <!-- Gift bag -->
    <ellipse cx="25" cy="20" rx="8" ry="12" fill="#8B4513"/>
    <rect x="17" y="8" width="16" height="3" fill="#8B4513"/>
  </g>
  
  <!-- Children opening gifts -->
  <!-- Child 1 -->
  <g transform="translate(650, 200)" filter="url(#dropShadow)">
    <!-- Child's body -->
    <ellipse cx="0" cy="25" rx="10" ry="18" fill="#4169E1"/>
    
    <!-- Child's head -->
    <circle cx="0" cy="0" r="8" fill="#FFDBAC"/>
    
    <!-- Child's hair -->
    <ellipse cx="0" cy="-5" rx="8" ry="4" fill="#8B4513"/>
    
    <!-- Child's arms reaching for gift -->
    <ellipse cx="-12" cy="12" rx="3" ry="8" fill="#FFDBAC"/>
    <ellipse cx="12" cy="12" rx="3" ry="8" fill="#FFDBAC"/>
    
    <!-- Child's legs -->
    <ellipse cx="-5" cy="43" rx="3" ry="10" fill="#000080"/>
    <ellipse cx="5" cy="43" rx="3" ry="10" fill="#000080"/>
    
    <!-- Gift box being opened -->
    <rect x="-15" y="40" width="12" height="10" fill="url(#giftRed)"/>
    <rect x="-15" y="40" width="12" height="2" fill="#FFD700"/>
    <rect x="-9" y="40" width="2" height="10" fill="#FFD700"/>
    
    <!-- Gift contents (toy) -->
    <circle cx="-9" cy="35" r="3" fill="#FF69B4"/>
  </g>
  
  <!-- Child 2 -->
  <g transform="translate(750, 205)" filter="url(#dropShadow)">
    <!-- Child's body -->
    <ellipse cx="0" cy="20" rx="8" ry="15" fill="#FF69B4"/>
    
    <!-- Child's head -->
    <circle cx="0" cy="0" r="7" fill="#FFDBAC"/>
    
    <!-- Child's hair -->
    <ellipse cx="0" cy="-4" rx="7" ry="3" fill="#FFD700"/>
    
    <!-- Child's arms -->
    <ellipse cx="-10" cy="10" rx="2.5" ry="6" fill="#FFDBAC"/>
    <ellipse cx="10" cy="10" rx="2.5" ry="6" fill="#FFDBAC"/>
    
    <!-- Child's legs -->
    <ellipse cx="-4" cy="35" rx="2.5" ry="8" fill="#8B008B"/>
    <ellipse cx="4" cy="35" rx="2.5" ry="8" fill="#8B008B"/>
    
    <!-- Gift box -->
    <rect x="12" y="30" width="10" height="8" fill="url(#giftBlue)"/>
    <rect x="12" y="30" width="10" height="1.5" fill="#FFFFFF"/>
    <rect x="16.5" y="30" width="1.5" height="8" fill="#FFFFFF"/>
  </g>
  
  <!-- Child 3 (smaller, in background) -->
  <g transform="translate(850, 210)" filter="url(#dropShadow)">
    <!-- Child's body -->
    <ellipse cx="0" cy="15" rx="6" ry="12" fill="#00CED1"/>
    
    <!-- Child's head -->
    <circle cx="0" cy="0" r="5" fill="#FFDBAC"/>
    
    <!-- Child's hair -->
    <ellipse cx="0" cy="-3" rx="5" ry="2" fill="#000000"/>
    
    <!-- Child's arms -->
    <ellipse cx="-7" cy="8" rx="2" ry="5" fill="#FFDBAC"/>
    <ellipse cx="7" cy="8" rx="2" ry="5" fill="#FFDBAC"/>
    
    <!-- Gift box already opened -->
    <rect x="-10" y="25" width="8" height="6" fill="url(#giftGreen)"/>
    <polygon points="-10,25 -2,25 -6,20" fill="url(#giftGreen)"/>
    
    <!-- Toy coming out -->
    <rect x="-8" y="20" width="4" height="3" fill="#FFD700"/>
  </g>
  
  <!-- Additional Christmas elements -->
  <!-- Snowflakes -->
  <g opacity="0.7">
    <g transform="translate(300, 80)">
      <path d="M0,-8 L0,8 M-8,0 L8,0 M-6,-6 L6,6 M-6,6 L6,-6" stroke="#FFFFFF" stroke-width="1" fill="none"/>
    </g>
    <g transform="translate(500, 120)">
      <path d="M0,-6 L0,6 M-6,0 L6,0 M-4,-4 L4,4 M-4,4 L4,-4" stroke="#FFFFFF" stroke-width="1" fill="none"/>
    </g>
    <g transform="translate(900, 90)">
      <path d="M0,-5 L0,5 M-5,0 L5,0 M-3,-3 L3,3 M-3,3 L3,-3" stroke="#FFFFFF" stroke-width="1" fill="none"/>
    </g>
  </g>
  
  <!-- House in background -->
  <g transform="translate(1000, 180)" filter="url(#dropShadow)">
    <!-- House wall -->
    <rect x="0" y="40" width="60" height="40" fill="url(#houseWall)"/>
    
    <!-- Roof -->
    <polygon points="0,40 30,20 60,40" fill="#8B0000"/>
    
    <!-- Snow on roof -->
    <polygon points="0,40 30,20 60,40 55,45 5,45" fill="url(#roofSnow)"/>
    
    <!-- Window -->
    <rect x="15" y="50" width="12" height="15" fill="url(#windowGlow)" filter="url(#softGlow)"/>
    
    <!-- Door -->
    <rect x="40" y="55" width="8" height="25" fill="#654321"/>
    <circle cx="46" cy="67" r="1" fill="#FFD700"/>
    
    <!-- Chimney -->
    <rect x="45" y="15" width="8" height="20" fill="#8B4513"/>
    
    <!-- Smoke -->
    <circle cx="49" cy="10" r="2" fill="#D3D3D3" opacity="0.6"/>
    <circle cx="51" cy="5" r="1.5" fill="#D3D3D3" opacity="0.5"/>
  </g>
  
  <!-- Christmas lights string across the scene -->
  <g opacity="0.8">
    <line x1="50" y1="100" x2="1150" y2="120" stroke="#006400" stroke-width="2"/>
    <circle cx="150" cy="105" r="3" fill="#FF0000"/>
    <circle cx="250" cy="107" r="3" fill="#00FF00"/>
    <circle cx="350" cy="109" r="3" fill="#0000FF"/>
    <circle cx="450" cy="111" r="3" fill="#FFD700"/>
    <circle cx="550" cy="113" r="3" fill="#FF69B4"/>
    <circle cx="650" cy="115" r="3" fill="#00FFFF"/>
    <circle cx="750" cy="117" r="3" fill="#FF4500"/>
    <circle cx="850" cy="118" r="3" fill="#9370DB"/>
    <circle cx="950" cy="119" r="3" fill="#32CD32"/>
    <circle cx="1050" cy="120" r="3" fill="#DC143C"/>
  </g>
</svg>